#Comment line ignore any data following # character 
#Hierarchical Translation and Rotation (.htr) file 
[Header]	
#Header keywords are followed by a single value 
FileType HTR		#Single word string
DataType HTRS		#Translation followed by rotation and scale data
FileVersion 1		#integer
NumSegments 84		#integer
NumFrames 2		#integer
DataFrameRate 30		#integer, data frame rate in this file
EulerRotationOrder ZYX
CalibrationUnits mm
RotationUnits Degrees
GlobalAxisofGravity Y
BoneLengthAxis Y
ScaleFactor 1.00
[SegmentNames&Hierarchy]
#CHILD	PARENT
MASTER GLOBAL
root MASTER
chest root
L_mid_tent01 root
R_mid_tent01 root
spine01 root
Bip01_Neck chest
L_humerus chest
R_humerus chest
weapon_bone chest
Bip01_Head Bip01_Neck
eye_left_bone Bip01_Head
eye_right_bone Bip01_Head
L_forearm L_humerus
L_front_hand L_forearm
L_weapon_bone L_forearm
L_front_hand01_01 L_front_hand
L_front_hand02_01 L_front_hand
L_front_hand03_01 L_front_hand
L_front_hand01_02 L_front_hand01_01
L_front_hand02_02 L_front_hand02_01
L_front_hand03_02 L_front_hand03_01
R_forearm R_humerus
R_front_hand R_forearm
R_weapon_bone R_forearm
R_front_hand01_01 R_front_hand
R_front_hand02_01 R_front_hand
R_front_hand03_01 R_front_hand
R_front_hand01_02 R_front_hand01_01
R_front_hand02_02 R_front_hand02_01
R_front_hand03_02 R_front_hand03_01
null_rope01_connect L_mid_tent01
Rope1_Seg01 null_rope01_connect
Rope1_Seg02 Rope1_Seg01
Rope1_Seg03 Rope1_Seg02
Rope1_Seg04 Rope1_Seg03
Rope1_Seg05 Rope1_Seg04
Rope1_Seg06 Rope1_Seg05
Rope1_Seg07 Rope1_Seg06
Rope1_Seg09 Rope1_Seg07
L_mid_hand01 Rope1_Seg09
L_mid_hand02 Rope1_Seg09
L_mid_hand03 Rope1_Seg09
null_rope02_connect R_mid_tent01
Rope2_Seg01 null_rope02_connect
Rope2_Seg02 Rope2_Seg01
Rope2_Seg03 Rope2_Seg02
Rope2_Seg04 Rope2_Seg03
Rope2_Seg05 Rope2_Seg04
Rope2_Seg06 Rope2_Seg05
Rope2_Seg07 Rope2_Seg06
Rope2_Seg09 Rope2_Seg07
R_mid_hand01 Rope2_Seg09
R_mid_hand02 Rope2_Seg09
R_mid_hand03 Rope2_Seg09
spine02 spine01
spine03 spine02
pelvis spine03
null_rope03_connect pelvis
null_rope04_connect pelvis
Rope3_Seg01 null_rope03_connect
Rope3_Seg02 Rope3_Seg01
Rope3_Seg03 Rope3_Seg02
Rope3_Seg04 Rope3_Seg03
Rope3_Seg05 Rope3_Seg04
Rope3_Seg06 Rope3_Seg05
Rope3_Seg07 Rope3_Seg06
Rope3_Seg08 Rope3_Seg07
Rope3_Seg09 Rope3_Seg08
R_rear_hand01 Rope3_Seg09
R_rear_hand02 Rope3_Seg09
R_rear_hand03 Rope3_Seg09
Rope4_Seg01 null_rope04_connect
Rope4_Seg02 Rope4_Seg01
Rope4_Seg03 Rope4_Seg02
Rope4_Seg04 Rope4_Seg03
Rope4_Seg05 Rope4_Seg04
Rope4_Seg06 Rope4_Seg05
Rope4_Seg07 Rope4_Seg06
Rope4_Seg08 Rope4_Seg07
Rope4_Seg09 Rope4_Seg08
L_rear_hand01 Rope4_Seg09
L_rear_hand02 Rope4_Seg09
L_rear_hand03 Rope4_Seg09
[BasePosition]
#SegmentName Tx, Ty, Tz, Rx, Ry, Rz, BoneLength
MASTER 0.000000 0.000000 0.000000 -90.000000 0.000000 0.000000 10.000000 
root 0.000000 0.000000 0.000000 0.000000 0.000000 0.000000 10.000000 
chest 0.000000 0.000000 0.000000 0.000000 0.000000 0.000000 10.000000 
L_mid_tent01 0.000000 0.000000 0.000000 0.000000 0.000000 0.000000 10.000000 
R_mid_tent01 0.000000 0.000000 0.000000 0.000000 0.000000 0.000000 10.000000 
spine01 0.000000 0.000000 0.000000 0.000000 0.000000 0.000000 10.000000 
Bip01_Neck 0.000000 0.000000 0.000000 0.000000 0.000000 0.000000 10.000000 
L_humerus 0.000000 0.000000 0.000000 0.000000 0.000000 0.000000 10.000000 
R_humerus 0.000000 0.000000 0.000000 0.000000 0.000000 0.000000 10.000000 
weapon_bone 0.000000 0.000000 0.000000 0.000000 0.000000 0.000000 10.000000 
Bip01_Head 0.000000 0.000000 0.000000 0.000000 0.000000 0.000000 10.000000 
eye_left_bone 0.000000 0.000000 0.000000 0.000000 0.000000 0.000000 10.000000 
eye_right_bone 0.000000 0.000000 0.000000 0.000000 0.000000 0.000000 10.000000 
L_forearm 0.000000 0.000000 0.000000 0.000000 0.000000 0.000000 10.000000 
L_front_hand 0.000000 0.000000 0.000000 0.000000 0.000000 0.000000 10.000000 
L_weapon_bone 0.000000 0.000000 0.000000 0.000000 0.000000 0.000000 10.000000 
L_front_hand01_01 0.000000 0.000000 0.000000 0.000000 0.000000 0.000000 10.000000 
L_front_hand02_01 0.000000 0.000000 0.000000 0.000000 0.000000 0.000000 10.000000 
L_front_hand03_01 0.000000 0.000000 0.000000 0.000000 0.000000 0.000000 10.000000 
L_front_hand01_02 0.000000 0.000000 0.000000 0.000000 0.000000 0.000000 10.000000 
L_front_hand02_02 0.000000 0.000000 0.000000 0.000000 0.000000 0.000000 10.000000 
L_front_hand03_02 0.000000 0.000000 0.000000 0.000000 0.000000 0.000000 10.000000 
R_forearm 0.000000 0.000000 0.000000 0.000000 0.000000 0.000000 10.000000 
R_front_hand 0.000000 0.000000 0.000000 0.000000 0.000000 0.000000 10.000000 
R_weapon_bone 0.000000 0.000000 0.000000 0.000000 0.000000 0.000000 10.000000 
R_front_hand01_01 0.000000 0.000000 0.000000 0.000000 0.000000 0.000000 10.000000 
R_front_hand02_01 0.000000 0.000000 0.000000 0.000000 0.000000 0.000000 10.000000 
R_front_hand03_01 0.000000 0.000000 0.000000 0.000000 0.000000 0.000000 10.000000 
R_front_hand01_02 0.000000 0.000000 0.000000 0.000000 0.000000 0.000000 10.000000 
R_front_hand02_02 0.000000 0.000000 0.000000 0.000000 0.000000 0.000000 10.000000 
R_front_hand03_02 0.000000 0.000000 0.000000 0.000000 0.000000 0.000000 10.000000 
null_rope01_connect 0.000000 0.000000 0.000000 0.000000 0.000000 0.000000 10.000000 
Rope1_Seg01 0.000000 0.000000 0.000000 0.000000 0.000000 0.000000 10.000000 
Rope1_Seg02 0.000000 0.000000 0.000000 0.000000 0.000000 0.000000 10.000000 
Rope1_Seg03 0.000000 0.000000 0.000000 0.000000 0.000000 0.000000 10.000000 
Rope1_Seg04 0.000000 0.000000 0.000000 0.000000 0.000000 0.000000 10.000000 
Rope1_Seg05 0.000000 0.000000 0.000000 0.000000 0.000000 0.000000 10.000000 
Rope1_Seg06 0.000000 0.000000 0.000000 0.000000 0.000000 0.000000 10.000000 
Rope1_Seg07 0.000000 0.000000 0.000000 0.000000 0.000000 0.000000 10.000000 
Rope1_Seg09 0.000000 0.000000 0.000000 0.000000 0.000000 0.000000 10.000000 
L_mid_hand01 0.000000 0.000000 0.000000 0.000000 0.000000 0.000000 10.000000 
L_mid_hand02 0.000000 0.000000 0.000000 0.000000 0.000000 0.000000 10.000000 
L_mid_hand03 0.000000 0.000000 0.000000 0.000000 0.000000 0.000000 10.000000 
null_rope02_connect 0.000000 0.000000 0.000000 0.000000 0.000000 0.000000 10.000000 
Rope2_Seg01 0.000000 0.000000 0.000000 0.000000 0.000000 0.000000 10.000000 
Rope2_Seg02 0.000000 0.000000 0.000000 0.000000 0.000000 0.000000 10.000000 
Rope2_Seg03 0.000000 0.000000 0.000000 0.000000 0.000000 0.000000 10.000000 
Rope2_Seg04 0.000000 0.000000 0.000000 0.000000 0.000000 0.000000 10.000000 
Rope2_Seg05 0.000000 0.000000 0.000000 0.000000 0.000000 0.000000 10.000000 
Rope2_Seg06 0.000000 0.000000 0.000000 0.000000 0.000000 0.000000 10.000000 
Rope2_Seg07 0.000000 0.000000 0.000000 0.000000 0.000000 0.000000 10.000000 
Rope2_Seg09 0.000000 0.000000 0.000000 0.000000 0.000000 0.000000 10.000000 
R_mid_hand01 0.000000 0.000000 0.000000 0.000000 0.000000 0.000000 10.000000 
R_mid_hand02 0.000000 0.000000 0.000000 0.000000 0.000000 0.000000 10.000000 
R_mid_hand03 0.000000 0.000000 0.000000 0.000000 0.000000 0.000000 10.000000 
spine02 0.000000 0.000000 0.000000 0.000000 0.000000 0.000000 10.000000 
spine03 0.000000 0.000000 0.000000 0.000000 0.000000 0.000000 10.000000 
pelvis 0.000000 0.000000 0.000000 0.000000 0.000000 0.000000 10.000000 
null_rope03_connect 0.000000 0.000000 0.000000 0.000000 0.000000 0.000000 10.000000 
null_rope04_connect 0.000000 0.000000 0.000000 0.000000 0.000000 0.000000 10.000000 
Rope3_Seg01 0.000000 0.000000 0.000000 0.000000 0.000000 0.000000 10.000000 
Rope3_Seg02 0.000000 0.000000 0.000000 0.000000 0.000000 0.000000 10.000000 
Rope3_Seg03 0.000000 0.000000 0.000000 0.000000 0.000000 0.000000 10.000000 
Rope3_Seg04 0.000000 0.000000 0.000000 0.000000 0.000000 0.000000 10.000000 
Rope3_Seg05 0.000000 0.000000 0.000000 0.000000 0.000000 0.000000 10.000000 
Rope3_Seg06 0.000000 0.000000 0.000000 0.000000 0.000000 0.000000 10.000000 
Rope3_Seg07 0.000000 0.000000 0.000000 0.000000 0.000000 0.000000 10.000000 
Rope3_Seg08 0.000000 0.000000 0.000000 0.000000 0.000000 0.000000 10.000000 
Rope3_Seg09 0.000000 0.000000 0.000000 0.000000 0.000000 0.000000 10.000000 
R_rear_hand01 0.000000 0.000000 0.000000 0.000000 0.000000 0.000000 10.000000 
R_rear_hand02 0.000000 0.000000 0.000000 0.000000 0.000000 0.000000 10.000000 
R_rear_hand03 0.000000 0.000000 0.000000 0.000000 0.000000 0.000000 10.000000 
Rope4_Seg01 0.000000 0.000000 0.000000 0.000000 0.000000 0.000000 10.000000 
Rope4_Seg02 0.000000 0.000000 0.000000 0.000000 0.000000 0.000000 10.000000 
Rope4_Seg03 0.000000 0.000000 0.000000 0.000000 0.000000 0.000000 10.000000 
Rope4_Seg04 0.000000 0.000000 0.000000 0.000000 0.000000 0.000000 10.000000 
Rope4_Seg05 0.000000 0.000000 0.000000 0.000000 0.000000 0.000000 10.000000 
Rope4_Seg06 0.000000 0.000000 0.000000 0.000000 0.000000 0.000000 10.000000 
Rope4_Seg07 0.000000 0.000000 0.000000 0.000000 0.000000 0.000000 10.000000 
Rope4_Seg08 0.000000 0.000000 0.000000 0.000000 0.000000 0.000000 10.000000 
Rope4_Seg09 0.000000 0.000000 0.000000 0.000000 0.000000 0.000000 10.000000 
L_rear_hand01 0.000000 0.000000 0.000000 0.000000 0.000000 0.000000 10.000000 
L_rear_hand02 0.000000 0.000000 0.000000 0.000000 0.000000 0.000000 10.000000 
L_rear_hand03 0.000000 0.000000 0.000000 0.000000 0.000000 0.000000 10.000000 
#Beginning of Data. Separated by tabs
#Fr	Tx	Ty	Tz	Rx	Ry	Rz	SF
[MASTER]
15 -0.000435 2966.954834 0.000000 0.001660 0.001660 0.001660 2966.955078
16 -0.000471 3205.476074 0.000000 0.001660 0.001660 0.001660 3205.476074
[root]
15 -76.523750 215.341339 993.531494 -90.908066 2.657314 -86.008820 1019.476563
16 -84.570511 237.252197 1069.588135 -92.063499 1.744336 -83.967743 1098.844727
[chest]
15 -84.512650 -34.090519 0.000000 5.583478 -1.460184 163.224503 91.129311
16 -84.512650 -34.090519 0.000000 5.425140 -1.866404 166.923004 91.129311
[L_mid_tent01]
15 27.299372 22.178225 -249.918411 -23.602507 11.690325 27.472755 252.381348
16 27.299364 22.178278 -249.918442 -28.614841 9.837214 20.034330 252.381378
[R_mid_tent01]
15 23.228794 24.509907 226.238495 -75.541504 -53.689152 -31.981361 228.744751
16 23.228794 24.509907 226.238495 -52.046864 -66.320396 -52.984322 228.744751
[spine01]
15 -0.361383 -0.195265 0.000000 0.514274 0.211745 19.133673 0.410763
16 -0.361383 -0.195265 0.000000 0.491261 0.201880 19.259928 0.410763
[Bip01_Neck]
15 165.484543 71.581718 0.000119 175.896118 1.177290 24.871183 180.302734
16 165.484543 71.581718 0.000119 175.896118 1.177290 24.871183 180.302734
[L_humerus]
15 -13.983130 -135.272980 -120.471481 -2.994582 64.935532 86.606079 181.680161
16 -13.983130 -135.272980 -120.471481 -3.069624 65.004539 86.525948 181.680161
[R_humerus]
15 -13.983309 -135.273102 125.287651 86.197945 -81.822113 -6.892536 184.909012
16 -13.983309 -135.273102 125.287651 89.529953 -23.810871 -5.411788 184.909012
[weapon_bone]
15 235.964890 -300.705902 0.000000 0.000000 -89.951546 -128.212341 382.234833
16 235.964890 -300.705902 0.000000 0.000000 -89.951546 -128.212341 382.234833
[Bip01_Head]
15 206.026718 156.007660 -3.113466 -14.610716 5.844590 -62.454464 258.447449
16 207.525620 160.783997 -3.801918 -25.235001 5.844562 -62.457653 262.550629
[eye_left_bone]
15 -24.626970 125.451866 -64.772606 0.000000 -90.000000 -99.840431 143.318359
16 -24.626970 125.451866 -64.772606 0.000000 -90.000000 -99.840431 143.318359
[eye_right_bone]
15 -24.626970 125.451866 64.327362 0.000000 -89.960434 80.159386 143.117676
16 -24.626970 125.451866 64.327362 0.000000 -89.960434 80.159386 143.117676
[L_forearm]
15 322.776093 0.000000 -0.000119 0.000260 -0.002333 -102.734329 322.776093
16 322.776093 0.000000 -0.000119 0.000266 -0.002332 -103.015343 322.776093
[L_front_hand]
15 241.149185 -0.042021 -3.300071 -178.667953 -1.835447 -27.422350 241.171753
16 241.149185 -0.042021 -3.300071 -178.667953 -1.835447 -27.422350 241.171753
[L_weapon_bone]
15 156.183838 0.000000 0.000000 0.000014 0.000007 0.000001 156.183838
16 156.183838 0.000000 0.000000 0.000014 0.000007 0.000001 156.183838
[L_front_hand01_01]
15 86.095154 20.947098 -0.655860 -0.366594 -0.477154 75.385574 88.609184
16 86.095154 20.947098 -0.655860 -0.366594 -0.477154 75.385574 88.609184
[L_front_hand02_01]
15 86.935165 -11.437475 24.513514 154.403519 -59.888931 -61.371990 91.046425
16 86.935165 -11.437475 24.513514 154.403519 -59.888931 -61.371990 91.046425
[L_front_hand03_01]
15 86.637497 -14.123976 -20.424902 -153.913849 58.118122 -62.702866 90.126129
16 86.637497 -14.123976 -20.424902 -153.913849 58.118122 -62.702866 90.126129
[L_front_hand01_02]
15 71.020905 -0.000179 0.000030 0.000334 -0.002323 -106.379684 71.020905
16 71.020905 -0.000179 0.000030 0.000334 -0.002323 -106.379684 71.020905
[L_front_hand02_02]
15 71.020927 -0.000119 0.000060 0.000334 -0.002323 -106.379684 71.020927
16 71.020927 -0.000119 0.000060 0.000334 -0.002323 -106.379684 71.020927
[L_front_hand03_02]
15 71.020905 -0.000060 0.000060 0.000334 -0.002323 -106.379684 71.020905
16 71.020905 -0.000060 0.000060 0.000334 -0.002323 -106.379684 71.020905
[R_forearm]
15 322.776428 -0.000060 0.000030 0.103776 -0.185214 -30.660126 322.776428
16 322.776428 -0.000060 0.000030 0.004343 -0.210967 -1.457366 322.776428
[R_front_hand]
15 238.847015 -0.006795 2.210259 -7.755676 1.477793 -8.717698 238.857239
16 238.847015 -0.006795 2.210259 -0.526913 1.646382 -6.439413 238.857239
[R_weapon_bone]
15 155.664093 0.002503 -0.000030 0.003487 0.001180 -90.988930 155.664078
16 155.664093 0.002503 -0.000030 0.003487 0.001180 -90.988930 155.664078
[R_front_hand01_01]
15 87.624611 14.231146 22.918642 -154.633499 -59.950619 61.746044 91.683487
16 87.624611 14.231146 22.918642 -154.633499 -59.950619 61.746044 91.683487
[R_front_hand02_01]
15 89.356956 14.367283 -19.491137 154.602661 58.302849 63.744389 92.579636
16 89.356956 14.367283 -19.491137 154.602661 58.302849 63.744389 92.579636
[R_front_hand03_01]
15 87.286232 -22.307278 -0.143439 0.162155 -0.423168 -75.767921 90.091743
16 87.286232 -22.307278 -0.143439 0.162155 -0.423168 -75.767921 90.091743
[R_front_hand01_02]
15 71.020905 0.000060 0.000119 0.001777 0.001534 8.377220 71.020905
16 71.020905 0.000060 0.000119 0.001777 0.001534 8.377220 71.020905
[R_front_hand02_02]
15 71.020844 -0.000030 -0.000119 0.001777 0.001534 8.377220 71.020836
16 71.020844 -0.000030 -0.000119 0.001777 0.001534 8.377220 71.020836
[R_front_hand03_02]
15 71.020905 0.000000 0.000030 0.001777 0.001534 8.377220 71.020905
16 71.020905 0.000000 0.000030 0.001777 0.001534 8.377220 71.020905
[null_rope01_connect]
15 328.732483 0.000000 -0.000238 167.213425 -62.281101 -108.846863 328.732483
16 328.732483 0.000000 -0.000238 166.443909 -56.879414 -99.023331 328.732483
[Rope1_Seg01]
15 0.000000 0.000000 0.000000 112.013672 11.629391 -154.626389 0.000000
16 0.000000 0.000000 0.000000 106.192497 8.710667 -150.738770 0.000000
[Rope1_Seg02]
15 139.999863 -0.000179 0.000000 18.321457 -12.354249 -7.294991 139.999863
16 139.999863 -0.000179 0.000000 19.793333 -18.249283 -4.936758 139.999863
[Rope1_Seg03]
15 139.999924 0.000060 -0.000060 12.369455 -14.998143 -2.550894 139.999924
16 139.999924 0.000060 -0.000060 3.787051 -14.178339 6.450969 139.999924
[Rope1_Seg04]
15 139.999924 -0.000060 -0.000119 8.665284 -18.080370 -0.294817 139.999924
16 139.999924 -0.000060 -0.000119 6.522105 -20.447792 -0.244679 139.999924
[Rope1_Seg05]
15 139.999832 0.000119 -0.000060 5.805108 -20.717543 -0.682823 139.999832
16 139.999832 0.000119 -0.000060 6.974142 -35.490330 -9.493321 139.999832
[Rope1_Seg06]
15 139.999954 0.000119 -0.000060 1.082936 -9.566412 0.660472 139.999954
16 139.999954 0.000119 -0.000060 -1.169889 -14.312473 -2.024927 139.999954
[Rope1_Seg07]
15 139.999985 0.000060 0.000000 0.230942 -4.857636 0.546271 139.999985
16 139.999985 0.000060 0.000000 -1.070288 -6.087306 -0.798285 139.999985
[Rope1_Seg09]
15 121.602913 0.000119 -0.000089 -89.793175 -1.359789 0.847147 121.602913
16 121.602913 0.000119 -0.000089 -89.793175 -1.359789 0.847147 121.602913
[L_mid_hand01]
15 103.859421 1.038730 8.195221 114.519440 -53.312305 -20.621822 104.187431
16 103.859421 1.038730 8.195221 114.519379 -53.312431 -20.621721 104.187431
[L_mid_hand02]
15 105.572853 -4.139662 -10.864139 -155.067673 38.166626 -52.448818 106.211075
16 105.572853 -4.139662 -10.864139 -155.067673 38.166626 -52.448818 106.211075
[L_mid_hand03]
15 104.641464 17.579376 -3.913581 -10.970130 15.317461 57.626949 106.179977
16 104.641464 17.579376 -3.913581 -10.970130 15.317461 57.626949 106.179977
[null_rope02_connect]
15 328.732849 0.000179 -0.000119 -163.005127 -8.833097 -31.269566 328.732849
16 328.732849 0.000179 -0.000119 -165.800980 -13.876152 -12.453359 328.732849
[Rope2_Seg01]
15 0.000036 0.000275 0.000124 91.190796 5.839831 -80.000412 0.000304
16 0.000039 0.000290 0.000122 85.269829 -0.528206 -81.568680 0.000317
[Rope2_Seg02]
15 139.999741 -0.000060 -0.000119 -4.474496 7.153112 -0.005378 139.999756
16 139.999741 -0.000060 -0.000119 -6.680566 7.149023 2.835547 139.999756
[Rope2_Seg03]
15 140.000107 0.000030 0.000000 -14.765879 12.565139 1.201890 140.000107
16 140.000107 0.000030 0.000000 -24.788300 16.445456 9.401331 140.000107
[Rope2_Seg04]
15 139.999802 0.000000 -0.000060 -69.592949 23.071112 13.099612 139.999802
16 139.999802 0.000000 -0.000060 -47.057739 20.857546 43.190723 139.999802
[Rope2_Seg05]
15 139.999985 -0.000060 0.000119 -73.737961 27.397020 23.985918 139.999985
16 139.999985 -0.000060 0.000119 -18.888807 1.241012 44.285213 139.999985
[Rope2_Seg06]
15 139.999893 -0.000030 -0.000119 -40.581718 -15.495843 88.543831 139.999893
16 139.999893 -0.000030 -0.000119 -1.318246 -6.001911 58.394653 139.999893
[Rope2_Seg07]
15 139.999893 0.000060 -0.000060 0.882923 -6.858830 6.487617 139.999893
16 139.999893 0.000060 -0.000060 4.384403 -2.538967 13.814917 139.999893
[Rope2_Seg09]
15 121.338966 0.000089 -0.000060 -176.585388 0.628455 -1.384864 121.338966
16 121.338966 0.000089 -0.000060 -83.061584 0.545172 -1.498062 121.338966
[R_mid_hand01]
15 104.680779 11.144459 -10.335981 -16.571243 45.135548 69.956093 105.778534
16 104.680779 11.144459 -10.335981 -17.573614 44.823460 68.535278 105.778534
[R_mid_hand02]
15 104.070427 2.443552 8.231699 49.667553 -67.470291 38.640572 104.424065
16 104.070427 2.443552 8.231699 51.246105 -66.659927 36.928188 104.424065
[R_mid_hand03]
15 106.028137 -11.221827 -5.996406 -176.995804 15.531577 -76.195831 106.788818
16 106.028137 -11.221827 -5.996406 -176.706177 15.474276 -75.111900 106.788818
[spine02]
15 129.756927 0.001550 0.000119 -0.256065 -13.610608 -4.312057 129.756927
16 129.756927 0.001550 0.000119 -0.254290 -14.054249 -4.313310 129.756927
[spine03]
15 78.557655 0.094138 -5.447923 1.895520 3.952918 16.780710 78.746391
16 78.557755 0.094007 -5.447026 1.900721 3.925821 16.895374 78.746422
[pelvis]
15 169.435242 0.051022 0.000000 -0.056961 -0.431096 6.358364 169.435257
16 169.435242 0.051022 0.000000 -0.057512 -0.418580 6.697062 169.435257
[null_rope03_connect]
15 -1.257226 -2.466202 137.391083 76.978012 -76.926567 -27.700865 137.418976
16 -1.257226 -2.466202 137.391083 83.305595 -74.601639 -33.794010 137.418976
[null_rope04_connect]
15 -1.259640 -2.480268 -137.844437 76.978012 -76.926567 -27.700865 137.872513
16 -1.259640 -2.480268 -137.844437 83.305595 -74.601639 -33.794010 137.872513
[Rope3_Seg01]
15 0.000047 -0.000255 0.000000 -139.476135 -42.150436 -70.218468 0.000259
16 0.000045 -0.000270 0.000000 -136.990891 -38.784557 -72.793243 0.000274
[Rope3_Seg02]
15 139.999924 -0.000119 0.000060 0.933944 -3.842028 -1.237158 139.999924
16 139.999924 -0.000119 0.000060 0.878538 -4.478560 -2.294811 139.999924
[Rope3_Seg03]
15 139.999924 -0.000119 0.000119 1.918764 -6.375467 -1.953159 139.999924
16 139.999924 -0.000119 0.000119 2.040340 -7.484861 -3.721294 139.999924
[Rope3_Seg04]
15 139.999924 0.000119 0.000000 5.755823 -13.068897 -3.305053 139.999924
16 139.999924 0.000119 0.000000 7.097051 -15.127625 -6.037055 139.999924
[Rope3_Seg05]
15 139.999924 -0.000238 0.000060 27.857887 -35.196507 2.772174 139.999924
16 139.999924 -0.000238 0.000060 28.204447 -29.545889 -2.562326 139.999924
[Rope3_Seg06]
15 139.999893 -0.000119 -0.000060 43.044941 -36.711380 -0.495792 139.999893
16 139.999893 -0.000119 -0.000060 55.447971 -33.883369 -6.455235 139.999893
[Rope3_Seg07]
15 139.999771 0.000060 -0.000119 43.148705 -31.452047 7.090892 139.999771
16 139.999771 0.000060 -0.000119 46.386684 -28.526052 14.978342 139.999771
[Rope3_Seg08]
15 139.999985 -0.000060 0.000000 9.922419 -3.586039 10.683541 139.999985
16 139.999985 -0.000060 0.000000 7.259229 -0.848125 10.697812 139.999985
[Rope3_Seg09]
15 90.185997 -0.000179 -0.000060 69.683540 -1.360007 -0.848287 90.185997
16 90.185997 -0.000179 -0.000060 69.593155 -1.360675 -0.847214 90.185997
[R_rear_hand01]
15 103.366196 -6.073594 -10.757982 -156.049316 6.070419 -2.795869 104.101845
16 103.366196 -6.073594 -10.757982 -156.049316 6.070419 -2.795869 104.101845
[R_rear_hand02]
15 100.509819 12.039542 -7.992327 -38.708435 1.958051 5.461187 101.543350
16 100.509819 12.039542 -7.992327 -38.708435 1.958051 5.461186 101.543350
[R_rear_hand03]
15 101.539970 5.215704 5.435467 84.307625 -2.361032 4.099037 101.819031
16 101.539970 5.215704 5.435467 84.307625 -2.361032 4.099037 101.819031
[Rope4_Seg01]
15 0.000081 -0.000391 0.000000 45.292770 -16.971010 -95.232941 0.000399
16 0.000080 -0.000427 0.000000 38.652260 -23.718040 -80.320435 0.000434
[Rope4_Seg02]
15 139.999985 0.000060 0.000119 0.130967 -2.507567 -6.128359 139.999985
16 139.999985 0.000060 0.000119 0.914157 -6.327546 -7.072222 139.999985
[Rope4_Seg03]
15 139.999924 0.000000 -0.000238 -0.266474 -2.251897 -6.263654 139.999924
16 139.999924 0.000000 -0.000238 0.450913 -6.842407 -7.834754 139.999924
[Rope4_Seg04]
15 139.999985 0.000000 0.000119 -0.964719 0.526048 -6.549788 139.999985
16 139.999985 0.000000 0.000119 -0.746096 -3.155383 -8.684154 139.999985
[Rope4_Seg05]
15 139.999802 -0.000060 -0.000119 -0.293131 -3.950540 -4.517422 139.999802
16 139.999802 -0.000060 -0.000119 -0.114509 -7.338005 -5.766996 139.999802
[Rope4_Seg06]
15 139.999924 0.000000 0.000060 2.419041 -17.233482 -5.800492 139.999924
16 139.999924 0.000000 0.000060 6.047529 -24.510820 -6.676741 139.999924
[Rope4_Seg07]
15 139.999802 0.000000 0.000000 9.697477 -27.962368 -10.273977 139.999802
16 139.999802 0.000000 0.000000 33.887547 -31.551191 -6.298093 139.999802
[Rope4_Seg08]
15 139.999924 0.000000 0.000119 47.017017 -22.201054 -5.377737 139.999924
16 139.999924 0.000000 0.000119 68.206902 -15.335135 5.698404 139.999924
[Rope4_Seg09]
15 90.185791 0.000060 0.000060 -135.617828 2.228885 0.850567 90.185791
16 90.185791 0.000060 0.000060 -135.617828 2.228885 0.850567 90.185791
[L_rear_hand01]
15 101.696655 -8.392275 -7.654577 -19.915020 -33.950905 119.950104 102.329041
16 101.696655 -8.392275 -7.654577 -19.915020 -33.950905 119.950104 102.329041
[L_rear_hand02]
15 102.726799 -1.568258 5.773216 77.862221 61.878510 165.399200 102.900848
16 102.726799 -1.568258 5.773216 77.862221 61.878510 165.399200 102.900848
[L_rear_hand03]
15 104.552910 9.721220 -10.420293 -173.099182 -23.740307 -117.327896 105.519653
16 104.552910 9.721220 -10.420293 -173.099182 -23.740307 -117.327896 105.519653
